HIERARCHY
ROOT hip
{
	OFFSET 0.000000 0.000000 0.000000 
	CHANNELS 6 Xposition Yposition Zposition Xrotation Zrotation Yrotation
	JOINT abdomen
	{
		OFFSET 0.000000 3.402643 0.000000 
		CHANNELS 3 Xrotation Zrotation Yrotation
		JOINT chest
		{
			OFFSET 0.000000 8.438565 -0.680529 
			CHANNELS 3 Xrotation Zrotation Yrotation
			JOINT neck
			{
				OFFSET 0.000000 10.207942 -0.272212 
				CHANNELS 3 Xrotation Zrotation Yrotation
				JOINT head
				{
					OFFSET 0.000000 3.130431 0.000000 
					CHANNELS 3 Xrotation Zrotation Yrotation
					End Site
					{
						OFFSET 0.000000 3.130435 0.000000 
					}
				}
			}
			JOINT lCollar
			{
				OFFSET 3.470700 6.669187 -0.816635 
				CHANNELS 3 Yrotation Zrotation Xrotation
				JOINT lShldr
				{
					OFFSET 3.198488 0.000000 0.000000 
					CHANNELS 3 Zrotation Yrotation Xrotation
					JOINT lForeArm
					{
						OFFSET 10.139888 0.000000 0.000000 
						CHANNELS 3 Yrotation Zrotation Xrotation
						JOINT lHand
						{
							OFFSET 8.370511 0.000000 0.000000 
							CHANNELS 3 Zrotation Yrotation Xrotation
							End Site
							{
								OFFSET 4.083176 0.000000 0.000000 
							}
						}
					}
				}
			}
			JOINT rCollar
			{
				OFFSET -3.470700 6.669187 -0.816635 
				CHANNELS 3 Yrotation Zrotation Xrotation
				JOINT rShldr
				{
					OFFSET -3.198488 0.000000 0.000000 
					CHANNELS 3 Zrotation Yrotation Xrotation
					JOINT rForeArm
					{
						OFFSET -10.139888 0.000000 0.000000 
						CHANNELS 3 Yrotation Zrotation Xrotation
						JOINT rHand
						{
							OFFSET -8.370511 0.000000 0.000000 
							CHANNELS 3 Zrotation Yrotation Xrotation
							End Site
							{
								OFFSET -4.083176 0.000000 0.000000 
							}
						}
					}
				}
			}
		}
	}
	JOINT lThigh
	{
		OFFSET 5.308129 -1.633274 1.361059 
		CHANNELS 3 Xrotation Zrotation Yrotation
		JOINT lShin
		{
			OFFSET -2.041588 -20.007561 0.000000 
			CHANNELS 3 Xrotation Zrotation Yrotation
			JOINT lFoot
			{
				OFFSET 0.000000 -19.190928 -1.224953 
				CHANNELS 3 Xrotation Yrotation Zrotation
				End Site
				{
					OFFSET 0.000000 -2.449906 4.627600 
				}
			}
		}
	}
	JOINT rThigh
	{
		OFFSET -5.308129 -1.633274 1.361059 
		CHANNELS 3 Xrotation Zrotation Yrotation
		JOINT rShin
		{
			OFFSET 2.041588 -20.007561 0.000000 
			CHANNELS 3 Xrotation Zrotation Yrotation
			JOINT rFoot
			{
				OFFSET 0.000000 -19.190928 -1.224953 
				CHANNELS 3 Xrotation Yrotation Zrotation
				End Site
				{
					OFFSET 0.000000 -2.449906 4.627600 
				}
			}
		}
	}
}
MOTION
Frames: 11
Frame Time: 0.033333
36.851650 51.358746 14.134785 -9.990234 9.677734 -135.623352 28.007120 -17.324945 9.629131 -16.279297 1.572266 6.758080 -0.009765 0.000000 0.000000 -29.160158 -16.884766 29.531256 2.000000 -2.000000 0.000000 -64.101555 37.949219 1.998193 -128.627991 0.225232 0.429991 62.814957 -31.253616 8.001158 -2.000000 2.000000 0.000000 65.976563 -12.714844 -2.646484 95.155014 -0.304281 0.278637 -37.633530 -44.496166 29.475067 -42.104839 4.472156 -0.904233 39.985802 -4.279258 -4.235267 18.604174 7.815924 -13.303308 -29.360790 -2.548195 -6.568027 28.366125 4.755342 2.885525 -3.776132 4.343751 11.484532 
36.725689 51.813583 13.609785 -8.769531 10.595703 -128.689621 28.001463 -14.357160 5.578351 -16.240234 3.144531 6.455079 -0.009765 0.000000 0.000000 -25.791018 -16.748047 30.009768 2.000000 -2.000000 0.000000 -59.130859 29.863277 6.835937 -131.072540 -0.113744 0.323040 68.394043 -30.372311 6.288472 -2.000000 2.000000 0.000000 73.154297 -21.982422 -2.454827 94.268036 -0.290481 0.211047 -35.801247 -42.816265 26.391083 -41.642361 2.987849 -2.775126 38.414803 -4.464629 -3.912484 22.101070 8.321342 -13.429825 -27.943682 -4.646941 -11.598701 28.194300 4.954335 2.684543 -3.312125 4.830981 11.112320 
35.281876 52.566139 11.438093 -7.363281 11.503906 -121.326180 27.404564 -11.701117 0.219471 -15.800782 5.390625 5.761719 -0.009765 0.000000 0.000000 -23.691408 -16.181641 33.281250 2.000000 -2.000000 0.000000 -59.863281 20.937500 4.570313 -127.552223 -0.077153 0.115471 62.487625 -24.002348 10.026926 -2.000000 2.000000 0.000000 78.769531 -29.931641 -2.153310 94.258797 -0.084606 0.203678 -34.019482 -41.307640 24.498032 -35.735039 3.182630 -1.589415 31.354242 -4.878744 -3.528275 16.319586 7.505213 -9.942128 -25.777130 -5.554568 -15.836068 27.159357 5.232782 2.201508 -2.060035 3.881553 11.861845 
33.318047 53.393112 8.900664 -5.761718 12.236328 -114.402229 26.511499 -9.070234 -6.088187 -15.009766 7.617188 4.980468 -0.009765 0.000000 0.000000 -22.929691 -16.103516 38.466801 2.000000 -2.000000 0.000000 -60.683594 9.970703 -0.039063 -121.214333 -0.155141 0.120102 52.356983 -13.085161 14.056499 -2.000000 2.000000 0.000000 82.128906 -36.552738 -0.898437 95.147202 -0.231412 0.204765 -31.541065 -40.376225 23.766758 -28.510710 4.325033 -0.419502 22.018858 -5.562675 -2.336862 12.359865 4.979433 -6.494720 -21.599318 -5.213769 -18.800198 23.450048 5.252415 1.949866 -1.728944 2.828340 13.026326 
32.584843 53.823158 7.757848 -4.521484 12.607422 -108.369141 26.255598 -7.234549 -10.075377 -14.599609 8.818360 4.365234 -0.009765 0.000000 0.000000 -22.851563 -16.943357 39.616299 2.000000 -2.000000 0.000000 -60.175785 -0.039063 -2.773438 -113.830666 0.299268 0.523382 43.072506 -2.701791 16.348276 -2.000000 2.000000 0.000000 88.164063 -42.031250 -5.605468 96.386475 -0.204481 0.245444 -28.140196 -39.287342 23.487457 -24.736656 5.007202 0.882189 16.356682 -5.651389 -1.896054 13.786398 1.814040 -4.775845 -16.689013 -4.677478 -22.009928 17.626173 5.399955 1.711749 -2.223293 2.370750 14.136194 
33.835396 54.335876 8.393813 -3.427734 12.626954 -104.265442 27.140627 -5.750557 -10.758051 -14.970702 8.486329 4.073707 -0.009765 0.000000 0.000000 -23.955078 -18.115234 38.242188 2.000000 -2.000000 0.000000 -60.488277 -4.814453 -4.659021 -107.846268 0.226391 0.449482 36.745064 3.414499 17.204321 -2.000000 2.000000 0.000000 95.908203 -44.062500 -14.284133 98.317909 -0.160949 0.336048 -25.285154 -38.594849 23.479155 -27.450537 4.197149 -0.385822 17.969057 -5.593050 -2.041523 24.539127 0.676033 -0.680483 -14.706055 -4.774864 -23.457523 14.801090 5.467216 1.426934 -1.210307 1.089798 15.455835 
36.705887 54.236649 10.041124 -2.880859 12.285156 -102.568359 28.838381 -4.719443 -10.082352 -15.732420 7.304688 3.780539 -0.009765 0.000000 0.000000 -25.937502 -18.828123 38.398438 2.000000 -2.000000 0.000000 -64.843750 -0.703125 -6.835937 -103.630173 0.122534 0.348088 35.208107 3.684501 18.098604 -2.000000 2.000000 0.000000 99.765625 -43.125004 -18.798828 100.945595 -0.120218 0.309127 -24.585190 -37.180042 23.097340 -33.229774 2.441025 -1.566565 22.379353 -5.351614 -2.652181 38.951408 1.403790 0.722345 -17.299461 -6.127777 -22.867018 17.974754 5.428294 1.765626 0.036102 -0.414802 17.540718 
38.295097 53.351776 11.688605 -2.880859 11.572265 -105.156250 30.664961 -4.148827 -8.365479 -16.308594 5.937500 3.681640 -0.009765 0.000000 0.000000 -28.359373 -18.759766 41.969521 2.000000 -2.000000 0.000000 -72.441406 8.623046 -9.726562 -99.407761 0.384684 0.479175 34.820480 0.701210 19.229469 -2.000000 2.000000 0.000000 93.378906 -40.781254 -11.523438 105.870361 0.120690 0.206054 -26.794388 -34.423145 21.004204 -37.501850 1.415730 -3.611432 27.683638 -5.288994 -3.230821 41.233570 2.147546 -2.096968 -20.042934 -6.421021 -20.395945 22.027540 5.067497 2.066245 -3.393916 -1.281847 17.986929 
36.841084 52.169178 12.577034 -3.583984 10.166016 -111.902573 32.079155 -4.658779 -6.021644 -16.708984 4.902344 4.024272 -0.009765 0.000000 0.000000 -30.859379 -18.017578 47.685551 2.000000 -2.000000 0.000000 -81.445313 20.937500 -14.306642 -95.872673 0.101981 0.496011 35.648861 -3.912419 20.461271 -2.000000 2.000000 0.000000 81.083984 -35.683590 1.982422 112.206329 0.038073 0.279407 -31.448223 -31.323576 18.971275 -36.839573 1.249665 -4.430665 33.145496 -4.849773 -3.704193 21.880041 5.335055 -5.717425 -24.292974 -6.687379 -16.523899 29.427767 4.774452 2.833734 -8.709860 0.076461 17.038774 
38.190880 50.812943 13.894515 -4.443358 8.398438 -121.053261 32.771751 -7.066779 -2.383179 -16.376953 4.199219 4.834700 -0.009765 0.000000 0.000000 -32.451180 -17.587889 51.601566 2.000000 -2.000000 0.000000 -88.007813 31.757814 -16.611328 -93.230713 0.153739 0.708063 36.824142 -8.963272 21.154905 -2.000000 2.000000 0.000000 74.189453 -27.187500 8.325617 115.924049 -0.130957 -0.004442 -35.239414 -29.786270 18.452885 -41.292130 2.353413 -3.568525 42.102112 -4.142754 -4.258137 22.624880 6.817208 -8.567526 -29.223688 -5.789218 -10.788095 36.660236 4.462830 3.308287 -11.156058 1.799821 17.308489 
40.256615 49.894989 15.110081 -5.146484 6.650391 -130.672699 33.210217 -10.897113 2.401258 -15.869141 3.652344 6.026012 -0.009765 0.000000 0.000000 -33.603519 -17.675779 51.621098 2.000000 -2.000000 0.000000 -87.646484 39.511719 -12.855114 -92.542061 0.337102 0.501569 37.640697 -12.491796 21.448513 -2.000000 2.000000 0.000000 71.494141 -15.839844 6.962892 115.039742 -0.358142 0.197261 -38.623524 -31.051096 22.712990 -44.484566 5.545670 -1.891362 47.194843 -3.823980 -4.801407 31.290390 4.497191 -10.679715 -31.684784 -3.310036 -4.126405 38.600365 4.472168 3.387893 -10.561527 2.608260 18.103226 
